<svg width="62" height="62" viewBox="0 0 62 62" fill="none" xmlns="http://www.w3.org/2000/svg">
<path d="M31 1.23999C14.5638 1.23999 1.23999 14.5638 1.23999 31C1.23999 47.4362 14.5638 60.76 31 60.76C47.4362 60.76 60.76 47.4362 60.76 31C60.76 14.5638 47.4362 1.23999 31 1.23999ZM42.4452 34.8161C42.4452 34.8161 45.0771 37.4139 45.725 38.6198C45.7436 38.6446 45.7529 38.6694 45.7591 38.6818C46.0226 39.1251 46.0846 39.4692 45.9544 39.7265C45.7374 40.1543 44.9934 40.3651 44.7392 40.3837H40.0892C39.7668 40.3837 39.091 40.3 38.2726 39.7358C37.6433 39.2956 37.0233 38.5733 36.4188 37.8696C35.5167 36.8218 34.7355 35.9166 33.9481 35.9166C33.8481 35.9164 33.7487 35.9321 33.6536 35.9631C33.0584 36.1553 32.2958 37.0047 32.2958 39.2677C32.2958 39.9745 31.7378 40.3806 31.3441 40.3806H29.2144C28.489 40.3806 24.7101 40.1264 21.3621 36.5955C17.2639 32.271 13.5749 23.5972 13.5439 23.5166C13.3114 22.9555 13.7919 22.6548 14.3158 22.6548H19.0123C19.6385 22.6548 19.8431 23.0361 19.9857 23.374C20.1531 23.7677 20.7669 25.3332 21.7744 27.094C23.4081 29.9646 24.4094 31.1302 25.2123 31.1302C25.3628 31.1284 25.5107 31.0901 25.6432 31.0186C26.691 30.4358 26.4957 26.7003 26.4492 25.9253C26.4492 25.7796 26.4461 24.2544 25.9098 23.5228C25.5254 22.9927 24.8713 22.7912 24.4745 22.7168C24.6351 22.4952 24.8467 22.3155 25.0914 22.1929C25.8106 21.8333 27.1064 21.7806 28.3929 21.7806H29.109C30.504 21.7992 30.8636 21.8891 31.3689 22.0162C32.3919 22.2611 32.4136 22.9214 32.3237 25.1813C32.2958 25.823 32.2679 26.5484 32.2679 27.404C32.2679 27.59 32.2586 27.7884 32.2586 27.9992C32.2276 29.1493 32.1904 30.4544 33.0026 30.9907C33.1085 31.0571 33.231 31.0926 33.356 31.093C33.6381 31.093 34.4875 31.093 36.7877 27.1467C37.4971 25.8765 38.1135 24.5566 38.6322 23.1973C38.6787 23.1167 38.8151 22.8687 38.9763 22.7726C39.0953 22.7119 39.2272 22.6811 39.3607 22.6827H44.8818C45.4832 22.6827 45.8955 22.7726 45.973 23.0051C46.1094 23.374 45.9482 24.4993 43.4279 27.9124L42.3026 29.3973C40.0179 32.3919 40.0179 32.5438 42.4452 34.8161Z" fill="#0075BB"/>
</svg>
