<svg width="49" height="49" viewBox="0 0 49 49" fill="none" xmlns="http://www.w3.org/2000/svg">
<g clip-path="url(#clip0_19_45)">
<path fill-rule="evenodd" clip-rule="evenodd" d="M9.21082 26.6642C8.63732 26.09 8.31519 25.3116 8.31519 24.5C8.31519 23.6885 8.63732 22.9101 9.21082 22.3359L20.7585 10.7841C21.333 10.2099 22.1121 9.88738 22.9244 9.88757C23.3266 9.88767 23.7249 9.96698 24.0964 10.121C24.468 10.275 24.8055 10.5007 25.0899 10.7851C25.3742 11.0696 25.5997 11.4073 25.7536 11.7789C25.9074 12.1506 25.9865 12.5488 25.9864 12.9511C25.9863 13.3533 25.907 13.7515 25.753 14.1231C25.599 14.4946 25.3733 14.8322 25.0889 15.1165L15.7074 24.5L25.0909 33.8835C25.3835 34.1659 25.617 34.5037 25.7777 34.8773C25.9384 35.2509 26.023 35.6527 26.0267 36.0593C26.0305 36.4659 25.9532 36.8692 25.7994 37.2457C25.6456 37.6221 25.4183 37.9642 25.1309 38.2518C24.8435 38.5395 24.5017 38.7671 24.1254 38.9212C23.7491 39.0754 23.3459 39.1531 22.9392 39.1497C22.5326 39.1464 22.1307 39.0621 21.757 38.9018C21.3833 38.7415 21.0452 38.5083 20.7626 38.216L9.20674 26.6642H9.21082Z" fill="#0075BB"/>
</g>
<defs>
<clipPath id="clip0_19_45">
<rect width="49" height="49" fill="white"/>
</clipPath>
</defs>
</svg>
