<svg width="50" height="50" viewBox="0 0 50 50" fill="none" xmlns="http://www.w3.org/2000/svg">
<g clip-path="url(#clip0_19_41)">
<path fill-rule="evenodd" clip-rule="evenodd" d="M40.4811 22.9511C41.0558 23.537 41.3745 24.3271 41.3671 25.1478C41.3596 25.9685 41.0268 26.7528 40.4415 27.3282L28.6582 38.9046C28.072 39.48 27.2811 39.7991 26.4597 39.7914C26.053 39.7877 25.651 39.7038 25.2766 39.5447C24.9023 39.3855 24.563 39.1542 24.278 38.864C23.9931 38.5737 23.7681 38.2301 23.6159 37.8529C23.4638 37.4757 23.3874 37.0722 23.3912 36.6655C23.3949 36.2587 23.4788 35.8567 23.6379 35.4824C23.7971 35.108 24.0284 34.7687 24.3186 34.4838L33.8915 25.0803L24.4881 15.5053C24.1947 15.2171 23.9617 14.8733 23.8026 14.4941C23.6436 14.1148 23.5616 13.7077 23.5616 13.2965C23.5615 12.8852 23.6434 12.4781 23.8024 12.0988C23.9613 11.7195 24.1943 11.3757 24.4875 11.0874C24.7808 10.7991 25.1286 10.5721 25.5105 10.4197C25.8925 10.2672 26.3009 10.1923 26.7121 10.1994C27.1233 10.2065 27.529 10.2954 27.9054 10.461C28.2819 10.6265 28.6216 10.8654 28.9048 11.1636L40.4852 22.9511L40.4811 22.9511Z" fill="#0075BB"/>
</g>
<defs>
<clipPath id="clip0_19_41">
<rect width="49" height="49" fill="white" transform="translate(49.5521 49.9999) scale(1.01131) rotate(-179.482)"/>
</clipPath>
</defs>
</svg>
